<?xml version="1.0" standalone="no"?><!DOCTYPE svg PUBLIC "-//W3C//DTD SVG 1.1//EN" "http://www.w3.org/Graphics/SVG/1.1/DTD/svg11.dtd"><svg t="1571218372193" class="icon" viewBox="0 0 1024 1024" version="1.1" xmlns="http://www.w3.org/2000/svg" p-id="3561" xmlns:xlink="http://www.w3.org/1999/xlink" width="200" height="200"><defs><style type="text/css"></style></defs><path d="M466.7 758.5c-5.7-6.1-11.1-12.6-16.4-19.2-11-9.2-21.5-18.9-31.2-29.6 3.5 0.4 7.1 0.3 10.6 0.6-7.9-12.7-14.9-26-20.8-39.8-7.6-1.2-15.3-2.1-22.7-3.9-27.5-42.5-46.3-92.3-53.7-146.3 17.8 6.8 36.4 12.1 55.5 16 1.2-11.5 3.2-23.2 6.1-35.1-22.7-4.8-44.4-11.9-64.7-21-0.1-3.4-0.3-6.9-0.3-10.3 0-40.7 6.6-79.8 18.7-116.2 29.5 20.2 64.7 32.4 102.6 34.7 11.6-14.6 24-28.8 37.7-41.8-8.4 1.4-16.9 2.3-25.6 2.3-37.3 0-71.6-12.6-99.1-33.7C387.3 263.9 422.7 220 466 188c36.5 27 66.9 62.7 90.1 103.9 11.2-7.9 22.6-15.3 33.8-22.5-19.3-33.7-42.9-64.1-70.6-89.6 37.3 6.7 72.2 20.3 103.5 39.2-2.9 13.8-8.1 26.6-14.3 38.9 19.6-12 39-23.3 56.8-33.5 9.6-5.5 20.3-11.7 30.6-17.9-62.1-52.9-142.1-85.3-229.7-85.3-75.4 0-145.3 23.8-202.9 63.9h-4.8c0 1.2 0.1 2.4 0.1 3.6-31.8 22.9-59.8 51-82.5 83.1-3.7 5.1-7.2 10.4-10.5 15.8-9 14.2-17.1 29-24 44.4-13.7 30.6-23.2 63.3-27.8 97.7-2.1 15.6-3.6 31.4-3.6 47.5 0 177.9 131.3 325.3 302 351.4 11.5-13.2 28.9-34.6 54.5-70.1z m-54.1-578.8c-32 29.6-59 65.3-79.6 105.5-14.1-18.2-24.5-39.4-29.9-62.4 32.8-21.1 69.8-35.9 109.5-43.1z m-144.1 68.9c9.6 29.3 25.7 55.6 46.5 77.3-15.5 41.2-24.5 85.9-25.7 132.7-41.9-26.8-76.3-62.8-99-105 18.2-40.5 44.9-76.2 78.2-105zM163.7 477c0-27.8 4-54.6 11.1-80.4 28.8 42.6 68.5 78.1 115.4 103.8 3.9 53.2 17.9 103.1 39.8 147.7-78.1-33.2-139-94.4-166.3-169.4 0.1-0.5 0-1 0-1.7z m20.7 109.4c43.9 52 104.7 91.5 174.7 111.4 18.9 27.5 41.1 52 66 73 2.6 1 5.3 1.8 8 2.7-2.1 1.2-4.1 2.1-6.2 3.3-111-14.5-203.1-89.3-242.5-190.4z m0 0" fill="#cdcdcd" p-id="3562"></path><path d="M782 181.3c5.6 56.1-271.1 130.5-340.4 291.4-53.5 123.9 16.2 229.1 87.8 279.7-137.4 201.4-143 158.9-153 170.9l77.5 15.5s131.3-223.3 144.6-246.7c-0.5-0.5-36.1-32.2-65.9-69.2-7.4-9.3-14.6-18.9-20.6-28.4-6-9.4-11.2-18.7-14.3-27.1-1.7-4.2-3.2-8-3.8-11.6-0.7-3.6-1.8-6.6-1.6-9.3 0-5.1-0.1-8.1-0.1-8.1s0.4 2.9 1.1 8c0 2.6 1.5 5.4 2.6 8.8 0.9 3.4 2.9 6.9 5 10.7 4 7.7 10 16 16.9 24.4 6.8 8.4 14.9 16.9 23.2 25.1 16.7 16.3 34.7 31.1 48.5 41.9 9.4 7.3 16.5 12.5 20.2 15.1 13.3-23.9 27-49.1 40.7-75.6l-0.3 0.4s-27.5-24.5-50.5-53c-5.7-7.2-11.2-14.5-15.8-21.8-4.6-7.3-8.6-14.3-11-20.8-1.3-3.2-2.4-6.1-2.9-8.9-0.5-2.7-1.4-5-1.2-7.1 0-4-0.1-6.2-0.1-6.2s0.3 2.3 0.8 6.2c0 2 1.2 4.1 2 6.7 0.7 2.6 2.2 5.3 3.8 8.2 3.1 5.9 7.7 12.2 12.9 18.6 5.3 6.4 11.5 12.9 17.7 19.2 12.8 12.4 26.6 23.8 37.1 32 6.8 5.3 12 9.1 15 11.2 14.6-28.6 29.1-58.6 43.3-89.7l-1.5 1.9s-22.1-19.6-40.4-42.4c-4.6-5.7-8.9-11.6-12.6-17.4-3.7-5.8-6.9-11.5-8.8-16.6-1-2.6-1.9-4.9-2.3-7.2-0.5-2.2-1.2-4-1-5.7v-5s0.2 1.9 0.6 5c0 1.5 0.9 3.3 1.6 5.3 0.6 2.1 1.8 4.2 3.1 6.6 2.4 4.8 6.2 9.8 10.4 15 4.2 5.1 9.1 10.3 14.2 15.4 10.2 10 21.2 19 29.6 25.6 5.5 4.3 9.7 7.3 12 9 0-0.2 0.1-0.4 0.2-0.6 0 0 9.8-21.7 14.2-32 45.4-105.3 28.4-60.8-7.6 30.2 3.4-0.2 7.6-0.5 12.8-1 11.8-1 27.5-2.8 42.9-6 7.7-1.6 15.3-3.5 22.3-5.7 7-2.3 13.4-4.7 18.6-7.6 2.5-1.4 4.9-2.7 6.7-4.3 1.8-1.5 3.7-2.6 4.7-4 2.3-2.6 3.5-4.2 3.5-4.2s-1.1 1.6-3 4.6c-0.8 1.6-2.6 2.9-4.3 4.7-1.6 1.9-3.9 3.5-6.4 5.2-4.9 3.6-11.2 7-18.1 10.1-6.9 3.2-14.5 6-22.2 8.6-30.7 10.1-62.9 15.1-62.9 15.1l-0.2-1.8c-9.8 24.7-20.7 52-32 80.4 3.7-0.2 7.8-0.5 12.8-0.9 15.1-1.4 35.4-3.7 55.3-7.7 9.9-2.1 19.9-4.5 28.9-7.4 9-2.9 17.3-6.1 23.9-9.9 3.3-1.8 6.4-3.5 8.8-5.5 2.4-2 4.8-3.4 6.1-5.2 2.9-3.4 4.6-5.4 4.6-5.4s-1.4 2.1-3.9 5.9c-1.1 2.1-3.3 3.7-5.5 6.1-2.2 2.4-5.1 4.5-8.3 6.7-6.3 4.7-14.4 8.9-23.3 13s-18.6 7.7-28.5 11.1c-33.9 11.2-69 17.4-78.4 19-10.5 26.3-25.6 52.9-35.8 78.8 4.1-0.3 13.3-0.6 18.8-1.1 17.4-1.6 40.6-4.3 63.4-8.9 11.4-2.4 22.7-5.1 33.1-8.5 10.3-3.4 19.9-7 27.4-11.3 3.8-2.1 7.4-4 10-6.4 2.7-2.2 5.5-3.8 7-5.9 3.4-3.9 5.3-6.1 5.3-6.1s-1.6 2.4-4.5 6.8c-1.2 2.4-3.8 4.3-6.4 6.9-2.4 2.8-5.8 5.1-9.5 7.7-7.2 5.4-16.6 10.3-26.8 15-10.2 4.8-21.5 8.8-32.8 12.7-38.5 12.7-84 17.5-95.3 19.5-11.8 29.9-32.8 60.4-42.1 84.5 92.3 33.2 251.2 40 315.4-108.9 69.2-160.4-118.6-542.5-113-486.3z m0 0" fill="#cdcdcd" p-id="3563"></path></svg>