<?xml version="1.0" standalone="no"?><!DOCTYPE svg PUBLIC "-//W3C//DTD SVG 1.1//EN" "http://www.w3.org/Graphics/SVG/1.1/DTD/svg11.dtd"><svg t="1577270359299" class="icon" viewBox="0 0 1303 1024" version="1.1" xmlns="http://www.w3.org/2000/svg" p-id="1525" xmlns:xlink="http://www.w3.org/1999/xlink" width="254.4921875" height="200"><defs><style type="text/css"></style></defs><path d="M730.18181844 904.72727281H250.18181844c-72.17454562 0-130.90909125-58.73454563-130.90909125-130.90909125a131.08363594 131.08363594 0 0 1 127.28727281-130.86545437c2.13818156 0.17454562 4.18909125 0.30545438 5.89090875 0.30545437l1.61454563 0.04363688c42.54545438 0 79.02545437-30.80727281 86.09454562-72.96A173.67272719 173.67272719 0 0 1 512 424.72727281c5.01818156 0 9.77454563 1.04727281 14.66181844 1.48363594a173.06181844 173.06181844 0 0 1 83.04 28.58181844A174.41454562 174.41454562 0 0 1 686.54545437 597.30909125a87.05454563 87.05454563 0 0 0 45.77454563 83.69454469c6.85090875 3.70909125 14.09454563 6.76363594 21.99272719 8.55272812a108 108 0 0 1 80.59636406 76.8c2.61818156 9.33818156 4.36363594 19.11272719 4.36363594 29.28 0 60.13090875-48.96 109.09090875-109.09090875 109.09090875m185.49818156-172.88727281a194.96727281 194.96727281 0 0 0-46.64727281-73.87636406 196.10181844 196.10181844 0 0 0-95.47636313-53.5418175c0.04363594-1.70181844 0.26181844-3.40363594 0.2618175-5.14909125a261.55636406 261.55636406 0 0 0-115.4618175-217.13454563 260.11636406 260.11636406 0 0 0-85.92-37.39636312A262.77818156 262.77818156 0 0 0 512 337.45454563a261.6 261.6 0 0 0-257.93454562 218.61818156C252.75636406 555.94181844 251.49090875 555.63636406 250.18181844 555.63636406a218.18181844 218.18181844 0 1 0 0 436.36363594h480a196.36363594 196.36363594 0 0 0 196.36363594-196.36363594c0-22.38545438-3.97090875-43.76727281-10.86545438-63.79636406" fill="#92cffa" p-id="1526"></path><path d="M773.81818156 162.90909125a43.63636406 43.63636406 0 0 1-43.63636312-43.63636406V75.63636406a43.63636406 43.63636406 0 1 1 87.27272718 0v43.63636313a43.63636406 43.63636406 0 0 1-43.63636406 43.63636406z m-277.7018175 9.68727281l30.85090875 30.85090875a43.63636406 43.63636406 0 0 1-61.74545437 61.70181844l-30.85090969-30.85090969a43.63636406 43.63636406 0 0 1 61.74545531-61.7018175z m586.25454469 586.25454469l30.85090969 30.85090969a43.63636406 43.63636406 0 1 1-61.74545438 61.7018175l-30.85090969-30.85090875a43.63636406 43.63636406 0 0 1 61.74545438-61.70181844zM1210.18181844 468.36363594a43.63636406 43.63636406 0 1 1 0 87.27272812h-43.63636407a43.63636406 43.63636406 0 0 1 0-87.27272812h43.63636407z m-127.81090969-203.21454469a43.63636406 43.63636406 0 1 1-61.74545438-61.70181844l30.85090969-30.85090875a43.63636406 43.63636406 0 1 1 61.74545438 61.7018175l-30.85090969 30.85090969zM773.81818156 250.18181844a261.81818156 261.81818156 0 0 1 261.8181825 261.81818156 261.38181844 261.38181844 0 0 1-119.95636406 219.84 194.96727281 194.96727281 0 0 0-46.64727281-73.87636406A174.37090875 174.37090875 0 0 0 948.36363594 512c0-96.26181844-78.28363594-174.54545437-174.54545438-174.54545437a173.14909125 173.14909125 0 0 0-115.4618175 44.68363593 260.11636406 260.11636406 0 0 0-85.92-37.39636312A261.16363594 261.16363594 0 0 1 773.81818156 250.18181844z" fill="#f1b34c" p-id="1527"></path></svg>