<?xml version="1.0" standalone="no"?><!DOCTYPE svg PUBLIC "-//W3C//DTD SVG 1.1//EN" "http://www.w3.org/Graphics/SVG/1.1/DTD/svg11.dtd"><svg t="1590649623134" class="icon" viewBox="0 0 1024 1024" version="1.1" xmlns="http://www.w3.org/2000/svg" p-id="11497" xmlns:xlink="http://www.w3.org/1999/xlink" width="200" height="200"><defs><style type="text/css"></style></defs><path d="M614.4 1024H153.6c-87.04 0-153.6-66.56-153.6-153.6V153.6c0-87.04 66.56-153.6 153.6-153.6h307.2c87.04 0 153.6 66.56 153.6 153.6v870.4zM153.6 102.4c-30.72 0-51.2 20.48-51.2 51.2v716.8c0 30.72 20.48 51.2 51.2 51.2h358.4V153.6c0-30.72-20.48-51.2-51.2-51.2H153.6z" p-id="11498" fill="#515151"></path><path d="M870.4 1024h-358.4V204.8h358.4c87.04 0 153.6 66.56 153.6 153.6v512c0 87.04-66.56 153.6-153.6 153.6z m-256-102.4h256c30.72 0 51.2-20.48 51.2-51.2V358.4c0-30.72-20.48-51.2-51.2-51.2h-256v614.4zM409.6 424.96H204.8c-25.6 0-51.2-20.48-51.2-51.2 0-25.6 20.48-51.2 51.2-51.2h204.8c25.6 0 51.2 20.48 51.2 51.2s-20.48 51.2-51.2 51.2z" p-id="11499" fill="#515151"></path><path d="M819.2 599.04h-102.4c-25.6 0-51.2-20.48-51.2-51.2 0-25.6 20.48-51.2 51.2-51.2h102.4c25.6 0 51.2 20.48 51.2 51.2 0 25.6-20.48 51.2-51.2 51.2zM409.6 701.44H204.8c-25.6 0-51.2-20.48-51.2-51.2 0-25.6 20.48-51.2 51.2-51.2h204.8c25.6 0 51.2 20.48 51.2 51.2 0 25.6-20.48 51.2-51.2 51.2z" p-id="11500" fill="#515151"></path></svg>