<?xml version="1.0" standalone="no"?><!DOCTYPE svg PUBLIC "-//W3C//DTD SVG 1.1//EN" "http://www.w3.org/Graphics/SVG/1.1/DTD/svg11.dtd"><svg t="1589351970411" class="icon" viewBox="0 0 1024 1024" version="1.1" xmlns="http://www.w3.org/2000/svg" p-id="4824" xmlns:xlink="http://www.w3.org/1999/xlink" width="200" height="200"><defs><style type="text/css"></style></defs><path d="M907.8 511.5c0-20-11.3-38.2-29.4-47.5L791 419.2l87.4-44.7c18.2-9.3 29.4-27.4 29.4-47.5 0-20-11.3-38.1-29.4-47.4l-328.3-168c-23.9-12-52.3-12-76.2 0l-328.4 168c-18.1 9.3-29.4 27.5-29.4 47.5s11.3 38.2 29.4 47.5l87.4 44.6-87.4 44.8c-18.1 9.3-29.5 27.6-29.4 47.5 0 20 11.3 38.2 29.4 47.5l90.2 46.3-90.1 45.7c-18.2 9.2-29.5 27.5-29.5 47.3 0 19.9 11.3 38.1 29.5 47.3L474 912.4c23.8 12.1 52.3 12.1 76.1 0l328.3-166.8c18.2-9.2 29.5-27.4 29.5-47.3 0.1-19.8-11.3-38.1-29.5-47.3l-90.2-45.8 90.2-46.3c18.2-9.2 29.4-27.4 29.4-47.4zM175.4 321.3l336.8-176.9 327.1 173.8L517.7 492 175.4 321.3zM853 698.8L524.7 865.6c-7.9 4-17.4 4-25.4 0L171 697.8l123.3-62.6 179.6 92.1c23.9 12.3 52.5 12.3 76.3 0l179.5-92.1L853 698.8z m-328.4-18.2c-7.9 4.1-17.3 4.1-25.2 0L171.1 510.7 291.3 449l182.6 93.4c23.9 12.2 52.4 12.2 76.2 0l182.4-93.3 120.4 63.1-328.3 168.4z" fill="#ffffff" p-id="4825"></path></svg>