<?xml version="1.0" standalone="no"?><!DOCTYPE svg PUBLIC "-//W3C//DTD SVG 1.1//EN" "http://www.w3.org/Graphics/SVG/1.1/DTD/svg11.dtd"><svg t="1601202602923" class="icon" viewBox="0 0 1024 1024" version="1.1" xmlns="http://www.w3.org/2000/svg" p-id="1587" width="64" height="64"><path d="M841.967 176.822H738.84v-74.45c0-10.532-4.271-20.074-11.168-26.971-6.907-6.907-16.449-11.178-26.981-11.178-21.074 0-38.159 17.085-38.159 38.149v74.45H362.439v-74.45c0-10.532-4.271-20.074-11.178-26.971-6.907-6.907-16.439-11.178-26.981-11.178-21.074 0-38.159 17.085-38.159 38.149v74.45H184.033c-43.43 0-78.762 35.332-78.762 78.762v624.935c0 43.43 35.332 78.762 78.762 78.762h657.934c43.43 0 78.762-35.332 78.762-78.762V255.584c0-43.43-35.331-78.762-78.762-78.762z m18.176 703.697c0 10.027-8.149 18.176-18.176 18.176H184.033c-10.027 0-18.176-8.149-18.176-18.176V415.814h694.286v464.705z m0-525.291H165.857v-99.644c0-10.027 8.149-18.176 18.176-18.176h657.934c10.027 0 18.176 8.149 18.176 18.176v99.644z" fill="#ffffff" p-id="1588"></path><path d="M700.559 646.425c0 16.732-13.561 30.293-30.293 30.293H542.773v127.493c0 16.732-13.561 30.293-30.293 30.293-16.722 0-30.293-13.561-30.293-30.293V676.718H354.704c-16.732 0-30.293-13.561-30.293-30.293s13.561-30.293 30.293-30.293h127.483V488.649c0-16.732 13.571-30.293 30.293-30.293 16.732 0 30.293 13.561 30.293 30.293v127.483h127.493c16.732 0 30.293 13.561 30.293 30.293z" fill="#ffffff" p-id="1589"></path></svg>