<?xml version="1.0" standalone="no"?><!DOCTYPE svg PUBLIC "-//W3C//DTD SVG 1.1//EN" "http://www.w3.org/Graphics/SVG/1.1/DTD/svg11.dtd"><svg t="1577270459161" class="icon" viewBox="0 0 1084 1024" version="1.1" xmlns="http://www.w3.org/2000/svg" p-id="2534" xmlns:xlink="http://www.w3.org/1999/xlink" width="211.71875" height="200"><defs><style type="text/css"></style></defs><path d="M1013.80587406 298.69916844c10.55327906-30.69916688-6.71577563-62.35775719-34.53801469-70.99190063-30.70051031-11.51222344-60.44159719 5.75606344-70.99487625 35.4959025-140.07090562 417.31706813-811.64377031 412.5203325-819.31887375 412.5203325 0 0 0 0-0.95942437 0-30.70051031 0-55.64457375 24.9431025-55.64457375 55.64226938-0.95942437 30.69916688 23.02531125 56.60159719 55.64457375 56.60159719 0 0 2.87817562 0 6.71577562 0 36.45676594 0 203.39067844-1.91865562 388.55287782-53.72361375C761.48639844 656.53655937 945.68917344 506.87803812 1013.80587406 298.69916844L1013.80587406 298.69916844zM463.11610813 322.68294312c42.21311813 0 72.91362844-31.65849469 72.91362843-71.95122843l0-20.14633969c0-40.29263812-30.70051031-72.91055625-72.91362844-72.91055625-37.41619031 0-70.03545281 32.61791812-70.03545281 72.91055625l0 20.14633969C393.08065531 291.02444844 425.69991781 322.68294312 463.11610813 322.68294312L463.11610813 322.68294312zM846.87205813 669.00811063c-38.37561375 0-70.99487625 32.61791812-70.99487626 71.95122843l0 22.06503844c0 39.33331031 32.6192625 71.95122844 70.99487625 71.95122844 39.3349425 0 72.91362844-32.61791812 72.91362844-71.95122844l0-22.06503844C919.78568656 701.62602969 886.20700062 669.00811063 846.87205813 669.00811063L846.87205813 669.00811063zM991.73989156 531.82114156c-30.70051031 0-56.60399719 27.8211825-56.60399718 57.560925l0 9.59349563c0 31.65849469 25.90348688 56.60159719 56.60399718 56.60159719 31.65983813 0 55.64457375-24.9431025 55.64457375-56.60159719l0-9.59349563C1047.38456094 559.64232406 1023.39982625 531.82114156 991.73989156 531.82114156L991.73989156 531.82114156zM642.52205187 767.82109812c-23.02531125 0-46.05071813 21.10569469-46.05071812 46.04879813l0 11.51219438c0 25.90243125 23.02531125 46.04879813 46.05071812 46.04879812 25.90348688 0 47.01014156-20.14636687 47.01014157-46.04879812l0-11.51219438C689.53209781 788.92679375 668.42553875 767.82109812 642.52205187 767.82109812L642.52205187 767.82109812zM602.227685 114.5040725c20.14723125 0 35.49743813-15.34963125 35.49743813-35.4959025L637.72512406 68.45532594c0-21.10569469-15.35020687-36.45532594-35.49743812-36.45532594-19.18780687 0-35.49743813 15.34963125-35.49743813 36.45532594l0 10.552845C566.73024687 99.15453781 583.03987813 114.5040725 602.227685 114.5040725L602.227685 114.5040725zM303.85739563 295.82118406c19.18780687 0 36.45676594-15.34963125 36.45676593-34.53657468l0-11.51219438c0-19.18694344-17.26905563-36.45532594-36.45676594-36.45532594-20.14723125 0-36.45676594 17.26828687-36.45676593 36.45532594l0 11.51219438C267.40062875 280.47155281 283.71026 295.82118406 303.85739563 295.82118406L303.85739563 295.82118406zM286.58843656 483.85368781c30.70051031 0 54.685245-25.90243125 54.685245-56.60159718l0-12.47154375c0-30.69916688-23.98473469-56.60159719-54.685245-56.60159719s-55.64457375 25.90243125-55.64457375 56.60159719l0 12.47154375C230.94386281 457.95125656 255.88792531 483.85368781 286.58843656 483.85368781L286.58843656 483.85368781zM607.02461281 354.34143781l0 13.43089313c0 17.26828687 16.30963125 35.4959025 35.49743813 35.4959025 21.10655906 0 36.45676594-18.22761469 36.45676594-35.4959025l0-13.43089313c0-18.22761469-15.35020687-35.4959025-36.45676594-35.4959025C623.33424406 318.84553531 607.02461281 336.11382219 607.02461281 354.34143781L607.02461281 354.34143781zM437.21262125 531.82114156c29.74108688 0 55.64457375-23.02435125 55.64457375-54.68294156l0-12.47154375c0-28.78051031-25.90348688-55.64226937-55.64457375-55.64226937-31.65983813 0-57.56342156 26.86175906-57.56342156 55.64226937l0 12.47154375C379.64919969 508.79679031 405.55278219 531.82114156 437.21262125 531.82114156L437.21262125 531.82114156zM751.89244625 289.10569625c39.3349425 0 70.99487625-31.65849469 70.99487625-72.91055625l0-21.10568906c0-39.33331031-31.65983813-70.99190062-70.99487625-70.99190063-41.25379031 0-71.954205 31.65849469-71.954205 70.99190063l0 21.10568906C679.93824219 257.4472025 710.6387525 289.10569625 751.89244625 289.10569625z" fill="#f0a34a" p-id="2535"></path></svg>