<?xml version="1.0" standalone="no"?><!DOCTYPE svg PUBLIC "-//W3C//DTD SVG 1.1//EN" "http://www.w3.org/Graphics/SVG/1.1/DTD/svg11.dtd"><svg t="1571218350699" class="icon" viewBox="0 0 1024 1024" version="1.1" xmlns="http://www.w3.org/2000/svg" p-id="2925" xmlns:xlink="http://www.w3.org/1999/xlink" width="200" height="200"><defs><style type="text/css"></style></defs><path d="M1001.7 917.1H22.3C10 917.1 0 927.2 0 939.4s10 22.3 22.3 22.3h979.5c12.2 0 22.3-10 22.3-22.3s-10.1-22.3-22.4-22.3z" fill="#bfbfbf" p-id="2926"></path><path d="M512 449.7m-31.2 0a31.2 31.2 0 1 0 62.4 0 31.2 31.2 0 1 0-62.4 0Z" fill="#bfbfbf" p-id="2927"></path><path d="M512 271.6m-31.2 0a31.2 31.2 0 1 0 62.4 0 31.2 31.2 0 1 0-62.4 0Z" fill="#bfbfbf" p-id="2928"></path><path d="M512 93.5m-31.2 0a31.2 31.2 0 1 0 62.4 0 31.2 31.2 0 1 0-62.4 0Z" fill="#bfbfbf" p-id="2929"></path><path d="M779.1 271.6m-31.2 0a31.2 31.2 0 1 0 62.4 0 31.2 31.2 0 1 0-62.4 0Z" fill="#bfbfbf" p-id="2930"></path><path d="M779.1 93.5m-31.2 0a31.2 31.2 0 1 0 62.4 0 31.2 31.2 0 1 0-62.4 0Z" fill="#bfbfbf" p-id="2931"></path><path d="M244.9 449.7m-31.2 0a31.2 31.2 0 1 0 62.4 0 31.2 31.2 0 1 0-62.4 0Z" fill="#bfbfbf" p-id="2932"></path><path d="M244.9 271.6m-31.2 0a31.2 31.2 0 1 0 62.4 0 31.2 31.2 0 1 0-62.4 0Z" fill="#bfbfbf" p-id="2933"></path><path d="M244.9 93.5m-31.2 0a31.2 31.2 0 1 0 62.4 0 31.2 31.2 0 1 0-62.4 0Z" fill="#bfbfbf" p-id="2934"></path><path d="M47.8 710.7c85.3 39.1 176.3 59 267.9 59 39.4 0 78.9-3.7 118.2-11.1C581.3 730.9 715.7 650.7 812.3 533c95-115.7 150.3-263.3 155.7-415.6 0.4-12.3-9.2-22.6-21.5-23-12.5-0.5-22.6 9.2-23 21.5C912.8 415.5 708.1 661.8 425.7 715c-121.5 22.9-245.7 7.4-359.3-44.7-11.2-5.1-24.4-0.2-29.5 11-5.2 11.1-0.3 24.3 10.9 29.4z" fill="#bfbfbf" p-id="2935"></path></svg>