<?xml version="1.0" standalone="no"?><!DOCTYPE svg PUBLIC "-//W3C//DTD SVG 1.1//EN" "http://www.w3.org/Graphics/SVG/1.1/DTD/svg11.dtd"><svg t="1577270495906" class="icon" viewBox="0 0 1024 1024" version="1.1" xmlns="http://www.w3.org/2000/svg" p-id="2913" xmlns:xlink="http://www.w3.org/1999/xlink" width="200" height="200"><defs><style type="text/css"></style></defs><path d="M536.98013867 444.77098667c-255.06065067 0-461.996032-72.36266667-461.996032-161.644544 0-89.358336 206.93538133-161.81384533 461.996032-161.81384534 15.515648 0 31.02583467 0.34952533 46.186496 0.87927467v69.19509333c-15.16066133-0.442368-30.49608533-0.70997333-46.186496-0.70997333-204.11733333 0-369.54112 41.33137067-369.54112 92.44945067 0 50.94331733 165.42378667 92.36206933 369.54112 92.36206933s369.639424-41.418752 369.639424-92.36206933c0-29.25090133-54.11089067-55.25777067-138.71786667-72.18244267v-67.93898667c138.19357867 27.93472 231.08539733 80.19968 231.08539733 140.12689067 0 89.276416-206.93538133 161.63908267-462.00695466 161.63908267zM675.528704 121.31805867c-25.55904 0-46.17557333-20.61653333-46.17557333-46.18103467s20.61653333-46.18103467 46.17557333-46.18103467c25.56450133 0 46.186496 20.61653333 46.186496 46.18103467s-20.627456 46.18103467-46.186496 46.18103467zM721.7152 953.12827733c-25.38973867 0-46.186496-20.80221867-46.186496-46.18103466 0-25.55904 20.79675733-46.36125867 46.186496-46.36125867 25.55357867 0 46.18103467 20.80768 46.18103467 46.36125867 0 25.378816-20.62199467 46.18103467-46.18103467 46.18103466zM74.98410667 560.316416c-25.378816 0-46.18103467-20.709376-46.18103467-46.18103467s20.80221867-46.27387733 46.18103467-46.27387733c25.56450133 0 46.27387733 20.80221867 46.27387733 46.27387733s-20.709376 46.18103467-46.27387733 46.18103467zM906.61956267 768.21845333c-25.55904 0-46.186496-20.61653333-46.186496-46.18103466s20.627456-46.18103467 46.186496-46.18103467c25.378816 0 46.186496 20.61653333 46.186496 46.18103467s-20.80768 46.18103467-46.186496 46.18103466zM122.667008 931.446784c-25.47165867 0-46.18103467-20.80221867-46.18103467-46.186496 0-25.54811733 20.709376-46.17557333 46.18103467-46.17557333s46.268416 20.62199467 46.268416 46.17557333c0.00546133 25.38427733-20.79675733 46.186496-46.268416 46.186496zM188.76552533 574.15543467l24.854528-60.02005334c173.27172267 71.65269333 516.02500267 49.61621333 644.34449067-7.405568 26.26901333-11.63264 43.54321067-24.76168533 48.644096-38.862848l61.17239467 21.86171734c-11.28311467 31.54466133-38.60616533 56.49749333-83.38363734 76.40951466-152.10359467 67.41469867-510.10491733 84.688896-695.631872 8.01723734zM250.89911467 779.50702933l32.07441066-56.41557333c75.09333333 42.663936 401.195008 33.67458133 461.82673067-24.14455467l44.941312 47.06577067c-88.653824 84.43221333-447.17943467 85.48625067-538.84245333 33.49435733zM206.127104 964.76091733l32.08533333-56.410112c75.18071467 42.66939733 252.76142933 26.968064 300.18218667 0l32.25463467 56.410112c-68.386816 38.95569067-270.39061333 53.41730133-364.52215467 0z" fill="#f0a34a" p-id="2914"></path></svg>