<?xml version="1.0" standalone="no"?><!DOCTYPE svg PUBLIC "-//W3C//DTD SVG 1.1//EN" "http://www.w3.org/Graphics/SVG/1.1/DTD/svg11.dtd"><svg t="1577270415371" class="icon" viewBox="0 0 1126 1024" version="1.1" xmlns="http://www.w3.org/2000/svg" p-id="2030" xmlns:xlink="http://www.w3.org/1999/xlink" width="219.921875" height="200"><defs><style type="text/css"></style></defs><path d="M947.0931891 749.302591H156.0461135a39.55392599 39.55392599 0 1 1-1e-8-79.10785278H947.0931891a39.55392599 39.55392599 0 0 1 0 79.10785278z m0-158.19473823H156.0461135a39.56441004 39.56441004 0 0 1-1e-8-79.11833604H947.0931891a39.56441004 39.56441004 0 0 1 0 79.11833604zM749.302591 353.80526178a157.30364831 157.30364831 0 0 0-85.71240451 25.53759956C639.23721238 274.13130445 545.45257838 195.57907295 432.89214723 195.57907295c-131.04269276 0-237.31307428 106.24941497-237.31307428 237.32355755H116.4921875C116.4921875 258.14409615 258.13361289 116.4921875 432.89214723 116.4921875c118.75612979 0 222.0701885 65.51086272 276.20654548 162.26230356 13.12523574-2.26441741 26.41820698-4.05708206 40.20389829-4.05708205 103.28260812 0 190.90299408 66.04551668 223.51689969 158.20522149h-86.6454283a158.01652025 158.01652025 0 0 0-136.87147139-79.09736872zM156.0461135 828.39995973H947.0931891a39.55392599 39.55392599 0 0 1 0 79.10785277H156.0461135a39.55392599 39.55392599 0 0 1-1e-8-79.10785277z m-1e-8 0" fill="#77c9f6" p-id="2031"></path></svg>