<?xml version="1.0" standalone="no"?><!DOCTYPE svg PUBLIC "-//W3C//DTD SVG 1.1//EN" "http://www.w3.org/Graphics/SVG/1.1/DTD/svg11.dtd"><svg t="1590649612665" class="icon" viewBox="0 0 1024 1024" version="1.1" xmlns="http://www.w3.org/2000/svg" p-id="11221" xmlns:xlink="http://www.w3.org/1999/xlink" width="200" height="200"><defs><style type="text/css"></style></defs><path d="M184.328192 762.538667a45.738667 45.738667 0 0 0 62.122667-11.605334l54.613333-81.237333 96.256 128.341333a44.373333 44.373333 0 0 0 36.181333 17.749334h3.413334a45.056 45.056 0 0 0 36.181333-24.576l102.4-204.8 90.794667 121.514666a43.690667 43.690667 0 0 0 39.594666 17.749334 45.056 45.056 0 0 0 36.181334-24.576l136.533333-268.970667a43.690667 43.690667 0 0 0-19.797333-60.074667 45.056 45.056 0 0 0-60.074667 20.48l-101.717333 204.8L603.485525 477.866667a43.008 43.008 0 0 0-40.277333-17.749334 43.690667 43.690667 0 0 0-35.498667 24.576l-102.4 204.8L334.514859 563.882667A45.056 45.056 0 0 0 297.650859 546.133333a43.690667 43.690667 0 0 0-36.181334 19.797334l-89.429333 136.533333a45.056 45.056 0 0 0 12.288 60.074667z" p-id="11222" fill="#515151"></path><path d="M986.461525 68.266667H36.872192a34.816 34.816 0 0 0-36.864 32.768v819.2a34.816 34.816 0 0 0 36.864 35.498666h949.589333a34.816 34.816 0 0 0 34.816-34.816v-819.2a34.816 34.816 0 0 0-34.816-33.450666zM195.933525 160.426667a46.421333 46.421333 0 0 1 90.794667 17.749333 47.104 47.104 0 0 1-36.181333 36.181333 46.421333 46.421333 0 0 1-54.613334-53.930666z m-122.197333 0a45.056 45.056 0 0 1 36.181333-36.181334 45.738667 45.738667 0 0 1 53.930667 53.930667 47.104 47.104 0 0 1-36.181333 36.181333 45.738667 45.738667 0 0 1-53.930667-53.930666zM955.741525 877.226667H68.274859V267.605333h887.466666v609.621334z" p-id="11223" fill="#515151"></path></svg>