<?xml version="1.0" standalone="no"?><!DOCTYPE svg PUBLIC "-//W3C//DTD SVG 1.1//EN" "http://www.w3.org/Graphics/SVG/1.1/DTD/svg11.dtd"><svg t="1577270471570" class="icon" viewBox="0 0 1024 1024" version="1.1" xmlns="http://www.w3.org/2000/svg" p-id="2786" xmlns:xlink="http://www.w3.org/1999/xlink" width="200" height="200"><defs><style type="text/css"></style></defs><path d="M786.2272 274.2272h-2.4576C765.952 140.0832 651.0592 36.4544 512 36.4544c-139.0592 0-253.952 103.6288-271.7696 237.7728h-2.4576C106.496 274.2272 0 380.5184 0 511.7952S106.496 749.568 237.7728 749.568h36.4544c20.2752 0 36.4544-16.384 36.4544-36.4544 0-20.2752-16.384-36.4544-36.4544-36.4544h-36.4544a164.4544 164.4544 0 1 1 0-328.9088c90.9312 0 164.6592 73.728 164.6592 164.4544 0 20.2752 16.384 36.4544 36.4544 36.4544 20.2752 0 36.4544-16.384 36.4544-36.4544 0-105.2672-68.4032-194.3552-163.0208-225.6896A201.07264 201.07264 0 0 1 524.288 110.1824a201.3184 201.3184 0 0 1 188.8256 200.9088v3.072c-0.2048 10.8544 4.5056 21.2992 12.9024 28.2624 8.3968 7.168 19.2512 10.0352 30.1056 7.9872 9.216-1.6384 18.432-2.6624 27.648-2.6624h2.4576c90.9312 0 164.6592 73.728 164.6592 164.4544s-73.728 164.4544-164.6592 164.4544h-36.4544c-20.2752 0-36.4544 16.384-36.4544 36.4544s16.384 36.4544 36.4544 36.4544h36.4544C917.504 749.568 1024 643.072 1024 511.7952c0-131.2768-106.496-237.568-237.7728-237.568z m0 0" fill="#77c9f6" p-id="2787"></path><path d="M714.752 986.3168c-2.2528 0-4.3008-0.2048-6.5536-0.6144-19.8656-3.4816-33.1776-22.528-29.4912-42.3936l20.48-114.688c3.4816-19.8656 22.528-33.1776 42.3936-29.4912 19.8656 3.4816 33.1776 22.528 29.4912 42.3936l-20.48 114.688c-3.072 17.6128-18.432 30.1056-35.84 30.1056z m-406.3232 1.2288c-2.2528 0-4.3008-0.2048-6.5536-0.6144-19.8656-3.4816-33.1776-22.528-29.4912-42.3936l20.48-114.688c3.4816-19.8656 22.528-33.1776 42.3936-29.4912 19.8656 3.4816 33.1776 22.528 29.4912 42.3936l-20.48 114.688c-3.072 17.6128-18.432 30.1056-35.84 30.1056z m206.2336-1.2288c-2.2528 0-4.3008-0.2048-6.5536-0.6144-19.8656-3.4816-33.1776-22.528-29.4912-42.3936l20.48-114.688c3.4816-19.8656 22.528-33.1776 42.3936-29.4912 19.8656 3.4816 33.1776 22.528 29.4912 42.3936l-20.48 114.688c-3.072 17.6128-18.432 30.1056-35.84 30.1056z m18.2272-222.4128c-20.2752 0-36.4544-16.384-36.4544-36.4544v-20.0704h-17.2032c-20.2752 0-36.4544-16.384-36.4544-36.4544 0-20.2752 16.384-36.4544 36.4544-36.4544h17.2032v-21.7088c0-20.2752 16.384-36.4544 36.4544-36.4544 20.2752 0 36.4544 16.384 36.4544 36.4544v21.7088h17.2032c20.2752 0 36.4544 16.384 36.4544 36.4544 0 20.2752-16.384 36.4544-36.4544 36.4544h-17.2032v20.0704c0.2048 20.0704-16.1792 36.4544-36.4544 36.4544z m0 0" fill="#08b2f7" p-id="2788"></path></svg>