<?xml version="1.0" standalone="no"?><!DOCTYPE svg PUBLIC "-//W3C//DTD SVG 1.1//EN" "http://www.w3.org/Graphics/SVG/1.1/DTD/svg11.dtd"><svg t="1590045345534" class="icon" viewBox="0 0 1024 1024" version="1.1" xmlns="http://www.w3.org/2000/svg" p-id="1986" xmlns:xlink="http://www.w3.org/1999/xlink" width="48" height="48"><defs><style type="text/css"></style></defs><path d="M98.986667 1024C61.44 1024 34.133333 996.693333 34.133333 962.56V436.906667c0-10.24 6.826667-23.893333 17.066667-34.133334 13.653333-10.24 27.306667-13.653333 44.373333-13.653333h68.266667V266.24L399.36 23.893333h494.933333c17.066667 0 34.133333 6.826667 44.373334 17.066667 44.373333-10.24 51.2 3.413333 51.2 20.48v901.12c0 34.133333-27.306667 61.44-64.853334 61.44h-34.133333-3.413333H98.986667z m0-583.68H88.746667v518.826667c0 10.24 3.413333 13.653333 13.653333 13.653333h71.68v-6.826667-525.653333H98.986667z m119.466666 522.24c0 6.826667 6.826667 10.24 13.653334 10.24H928.426667c6.826667 0 13.653333-3.413333 13.653333-10.24V61.44c0-6.826667-6.826667-10.24-13.653333-10.24H474.453333v180.906667c0 47.786667-34.133333 81.92-78.506666 81.92H218.453333v648.533333z m10.24-696.32h163.84c17.066667 0 27.306667-13.653333 27.306667-34.133333V71.68L228.693333 266.24z" p-id="1987" fill="#cdcdcd"></path><path d="M426.666667 409.6c-13.653333 0-27.306667-10.24-27.306667-23.893333 0-13.653333 10.24-23.893333 27.306667-23.893334H750.933333c13.653333 0 27.306667 10.24 27.306667 23.893334 0 13.653333-10.24 23.893333-27.306667 23.893333h-324.266666zM426.666667 597.333333c-13.653333 0-27.306667-10.24-27.306667-23.893333 0-13.653333 10.24-23.893333 27.306667-23.893333H750.933333c13.653333 0 27.306667 10.24 27.306667 23.893333 0 13.653333-10.24 23.893333-27.306667 23.893333h-324.266666zM426.666667 788.48c-13.653333 0-27.306667-10.24-27.306667-23.893333 0-13.653333 10.24-23.893333 27.306667-23.893334H750.933333c13.653333 0 27.306667 10.24 27.306667 23.893334 0 13.653333-10.24 23.893333-27.306667 23.893333h-324.266666z" p-id="1988" fill="#cdcdcd"></path></svg>