<?xml version="1.0" standalone="no"?><!DOCTYPE svg PUBLIC "-//W3C//DTD SVG 1.1//EN" "http://www.w3.org/Graphics/SVG/1.1/DTD/svg11.dtd"><svg t="1577270436000" class="icon" viewBox="0 0 1176 1024" version="1.1" xmlns="http://www.w3.org/2000/svg" p-id="2282" xmlns:xlink="http://www.w3.org/1999/xlink" width="229.6875" height="200"><defs><style type="text/css"></style></defs><path d="M483.64273156 985.89939125a45.81379594 45.81379594 0 0 1-16.83039187-62.50120969l61.29612187-105.72100125a46.24272563 46.24272563 0 0 1 62.80758844-16.74868968 45.79337063 45.79337063 0 0 1 16.83039094 62.52163499l-61.29612094 105.70057594a46.24272563 46.24272563 0 0 1-62.80758844 16.74868969z m84.25408219-862.35329719c104.57718844-0.10212656 199.06431187 62.13355594 239.89435031 157.98917063l23.48901657 55.08685031 60.11145843 0.6127575c83.62090031 0.93956062 151.6164975 69.32323781 151.6164975 152.45393156 0 84.15195562-68.75133094 152.57648344-153.27094125 152.57648344H246.05643219c-67.60751813 0-122.61266812-54.73962188-122.61266813-122.06118656-0.20425219-62.50120969 47.26398656-114.99405656 109.72434657-121.36672875l66.17775187-6.8424525 14.19553594-64.72756125c25.87876875-118.05784125 132.84570938-203.72126438 254.35541531-203.72126438z m0-91.54588969C399.16397188 32.00020438 258.27072031 150.11932156 223.71122844 307.78168719 110.39204094 319.87342438 26.36263625 418.03709 32.30637875 531.31542687c5.92331719 113.29876219 99.77725875 202.20979781 213.75005344 202.49575125h643.68076312C1025.15648375 733.81117812 1134.96253062 624.51576125 1134.96253062 489.68880406c0-133.90782094-108.35585625-242.50878-242.54963062-243.97939687A352.60078125 352.60078125 0 0 0 567.89681375 32.00020438z" fill="#77c9f6" p-id="2283"></path></svg>