<?xml version="1.0" standalone="no"?><!DOCTYPE svg PUBLIC "-//W3C//DTD SVG 1.1//EN" "http://www.w3.org/Graphics/SVG/1.1/DTD/svg11.dtd"><svg t="1577270386310" class="icon" viewBox="0 0 1024 1024" version="1.1" xmlns="http://www.w3.org/2000/svg" p-id="1652" xmlns:xlink="http://www.w3.org/1999/xlink" width="200" height="200"><defs><style type="text/css"></style></defs><path d="M936.76373333 618.1088c-25.13173333-26.4416-56.8832-44.0992-91.52-51.3024-5.408-63.85173333-32.19413333-123.18506667-76.78506666-169.11573333-37.71306667-38.8448-84.76266667-64.63253333-135.9712-75.16586667l-13.6704-52.6816a31.96586667 31.96586667 0 0 0-0.2784-1.00693333c-27.664-94.13013333-112.13226667-160.32426667-210.19093334-164.71573334-118.2016-5.29386667-219.82613333 80.08533333-237.3824 194.432-28.86826667 5.24693333-55.70133333 18.64213333-77.5904 39.072-29.60533333 27.63093333-46.90453333 65.104-48.71466666 105.51466667-1.8368 41.01546667 12.14933333 80.13653333 39.3856 110.15466667 12.3584 13.62133333 26.80533333 24.66133333 42.6848 32.83733333-17.13813333 9.98613333-32.68266667 22.92586667-45.8912 38.41386667-28.18026667 33.04213333-43.6992 75.43253333-43.6992 119.3632 0 100.04266667 79.472 181.4368 177.1552 181.4368h596.10773333c46.77333333 0 90.99093333-18.90133333 124.51093333-53.22666667 33.49546667-34.29653333 51.94133333-79.68426667 51.94133334-127.8016 0.00213333-47.40053333-17.7888-92.22186667-50.09173334-126.208zM110.0864 446.06933333c1.04-23.18933333 10.97386667-44.69866667 27.9744-60.56533333 16.9856-15.85493333 39.14453333-24.36586667 62.3552-23.94453333 18.00746667 0.3264 32.88533333-13.87946667 33.31733333-31.88053334 0.01386667-0.288 0.03733333-0.57173333 0.0576-0.85653333 0.0608-0.85546667 0.11733333-1.71626667 0.15786667-2.59626667 4.0512-90.44693333 80.96426667-160.7552 171.4688-156.68053333 69.9488 3.1328 130.224 50.24 150.14506667 117.2768l7.99893333 30.82666667c-92.32746667 5.6416-174.55466667 59.9616-218.208 142.08533333-18.15893333-9.99573333-38.65813333-15.37493333-59.93386667-15.37493333-55.4208 0-102.624 36.64426667-119.68 87.48586666-12.57173333-4.70826667-23.9232-12.3456-33.18933333-22.55786666-15.54346667-17.13386667-23.52106667-39.584-22.464-63.21813334zM888.064 826.36053333c-21.09333333 21.59786667-48.672 33.49333333-77.6576 33.49333334h-596.10666667c-61.57226667 0-111.66506667-52.01173333-111.66506666-115.94453334 0-57.7248 41.39733333-107.104 96.29013333-114.85866666a32.74773333 32.74773333 0 0 0 27.2896-39.94453334 67.00053333 67.00053333 0 0 1-1.792-15.37386666c0-35.22453333 27.36426667-63.88053333 60.99946667-63.88053334 18.24213333 0 35.3856 8.45546667 47.03573333 23.1968a32.74453333 32.74453333 0 0 0 56.76053333-9.95733333c27.9712-84.00426667 104.4416-140.4448 190.28693334-140.4448 110.9792 0 201.26826667 93.4592 201.26826666 208.33386667 0 1.00693333 0.02133333 1.98826667 0.04586667 2.96533333 0.01173333 0.448 0.03413333 0.89066667 0.02346667 1.34613333-0.36266667 17.98613333 13.8496 32.89813333 31.83146666 33.39733334 29.00266667 0.80426667 56.2144 13.072 76.61866667 34.5408 20.68266667 21.76 32.0736 50.5568 32.0736 81.08906666 0 30.9152-11.8272 60.05226667-33.3024 82.0416z" fill="#77c9f6" p-id="1653"></path></svg>