<?xml version="1.0" standalone="no"?><!DOCTYPE svg PUBLIC "-//W3C//DTD SVG 1.1//EN" "http://www.w3.org/Graphics/SVG/1.1/DTD/svg11.dtd"><svg t="1571221226508" class="icon" viewBox="0 0 1024 1024" version="1.1" xmlns="http://www.w3.org/2000/svg" p-id="1255" xmlns:xlink="http://www.w3.org/1999/xlink" width="200" height="200"><defs><style type="text/css"></style></defs><path d="M812.8 396.8h-80c0-128-99.2-227.2-224-227.2s-224 99.2-224 227.2h-80c0-153.6 137.6-307.2 304-307.2s304 150.4 304 307.2zM915.2 528c0-44.8-35.2-80-80-80H192c-44.8 0-80 35.2-80 80v380.8c0 44.8 35.2 80 80 80h643.2c44.8 0 80-35.2 80-80V528zM576 825.6c0 32-25.6 60.8-60.8 60.8h-9.6c-32 0-60.8-25.6-60.8-60.8V662.4c0-32 25.6-60.8 60.8-60.8h9.6c32 0 60.8 25.6 60.8 60.8v163.2z" fill="#8a8a8a" p-id="1256"></path></svg>