<?xml version="1.0" standalone="no"?><!DOCTYPE svg PUBLIC "-//W3C//DTD SVG 1.1//EN" "http://www.w3.org/Graphics/SVG/1.1/DTD/svg11.dtd"><svg t="1577270398711" class="icon" viewBox="0 0 1024 1024" version="1.1" xmlns="http://www.w3.org/2000/svg" p-id="1778" xmlns:xlink="http://www.w3.org/1999/xlink" width="200" height="200"><defs><style type="text/css"></style></defs><path d="M395.762162 642.075676c-91.32973 0-182.659459 0-251.848648-2.767568-5.535135 0-11.07027-2.767568-16.605406-5.535135-2.767568-2.767568-91.32973-55.351351-91.32973-193.72973 0-94.097297 80.259459-157.751351 119.005406-182.659459C146.681081 160.518919 202.032432 55.351351 340.410811 22.140541c130.075676-30.443243 221.405405 49.816216 257.383784 88.562162 83.027027-22.140541 152.216216-16.605405 207.567567 19.372973C871.783784 174.356757 893.924324 249.081081 899.459459 282.291892c77.491892 55.351351 107.935135 138.378378 83.027027 221.405405-24.908108 80.259459-94.097297 135.610811-163.286486 135.610811h-88.562162c-85.794595 2.767568-210.335135 2.767568-334.875676 2.767568z m-240.778378-69.18919c163.286486 2.767568 428.972973 2.767568 572.886486 0h91.32973c35.978378 0 80.259459-38.745946 94.097297-85.794594 11.07027-33.210811 16.605405-96.864865-66.421621-152.216216-8.302703-5.535135-13.837838-16.605405-16.605406-24.908108 0 0-8.302703-80.259459-66.421621-119.005406-41.513514-27.675676-96.864865-27.675676-168.821622-2.767567-13.837838 5.535135-30.443243 0-38.745946-11.070271-2.767568-5.535135-83.027027-107.935135-202.032432-80.259459-127.308108 24.908108-141.145946 124.540541-130.075676 171.589189 2.767568 16.605405-2.767568 30.443243-16.605405 38.745946 0 0-102.4 55.351351-102.4 135.610811-2.767568 77.491892 35.978378 116.237838 49.816216 130.075675zM207.567568 863.481081c-5.535135 0-13.837838-2.767568-19.372973-5.535135-16.605405-11.07027-19.372973-33.210811-8.302703-47.048649l55.351351-83.027027c11.07027-16.605405 33.210811-19.372973 47.048649-8.302702 16.605405 11.07027 19.372973 33.210811 8.302703 47.048648l-55.351352 83.027027c-5.535135 11.07027-16.605405 13.837838-27.675675 13.837838zM318.27027 1001.859459c-5.535135 0-13.837838-2.767568-19.372973-5.535135-16.605405-11.07027-19.372973-33.210811-8.302702-47.048648l55.351351-83.027027c11.07027-16.605405 33.210811-19.372973 47.048649-8.302703 16.605405 11.07027 19.372973 33.210811 8.302702 47.048649l-55.351351 83.027027c-5.535135 11.07027-16.605405 13.837838-27.675676 13.837837zM484.324324 863.481081c-5.535135 0-13.837838-2.767568-19.372973-5.535135-16.605405-11.07027-19.372973-33.210811-8.302702-47.048649l55.351351-83.027027c11.07027-16.605405 33.210811-19.372973 47.048649-8.302702 16.605405 11.07027 19.372973 33.210811 8.302702 47.048648l-55.351351 83.027027c-5.535135 11.07027-16.605405 13.837838-27.675676 13.837838zM595.027027 1001.859459c-5.535135 0-11.07027 0-16.605405-2.767567-16.605405-8.302703-24.908108-30.443243-16.605406-47.048649l55.351352-110.702702c8.302703-16.605405 30.443243-24.908108 47.048648-16.605406 16.605405 8.302703 24.908108 30.443243 16.605406 47.048649l-55.351352 110.702702c-5.535135 13.837838-16.605405 19.372973-30.443243 19.372973zM761.081081 863.481081c-5.535135 0-13.837838-2.767568-19.372973-5.535135-16.605405-11.07027-19.372973-33.210811-8.302703-47.048649l55.351352-83.027027c11.07027-16.605405 33.210811-19.372973 47.048648-8.302702 16.605405 11.07027 19.372973 33.210811 8.302703 47.048648l-55.351351 83.027027c-5.535135 11.07027-16.605405 13.837838-27.675676 13.837838z" fill="#77c9f6" p-id="1779"></path></svg>