<?xml version="1.0" standalone="no"?><!DOCTYPE svg PUBLIC "-//W3C//DTD SVG 1.1//EN" "http://www.w3.org/Graphics/SVG/1.1/DTD/svg11.dtd"><svg t="1590648898618" class="icon" viewBox="0 0 1024 1024" version="1.1" xmlns="http://www.w3.org/2000/svg" p-id="2606" xmlns:xlink="http://www.w3.org/1999/xlink" width="48" height="48"><defs><style type="text/css"></style></defs><path d="M493.723 590.618l-116.4-96.635-65.215 28.309 181.307 151.114 276.718-312.064-55.657-19.384-220.753 248.665v-0.005z m432.365-421.903l-34.223-0.497c-0.83 0-87.662-1.78-187.523-41.348C604.11 87.035 538.907 41.14 536.94 39.73l0.074 0.049-20.812-14.675-20.663 14.67 0.063-0.049c-2.229 1.6-66.573 47.103-167.403 87.144-99.754 39.558-195.559 41.348-196.412 41.348l-34.492 0.503v413.284c0 92.566 56.475 197.028 154.953 286.603 42.877 39.003 90.583 72.102 137.963 95.71 47.266 23.563 90.854 36.017 126.061 36.017 71.977 0 173.837-51.683 259.503-131.657 95.624-89.287 150.462-193.77 150.462-286.671l-0.148-413.285v-0.007z m-51.763 413.29c0 167.118-254.16 358.447-358.059 358.447-52.043 0-143.389-47.691-222.138-115.966-92.393-80.118-145.384-168.493-145.384-242.48v-347.41l7.19-0.757c79.47-8.383 148.187-23.424 198.702-43.482 75.899-30.24 131.117-62.409 157.283-78.88l4.335-2.724 4.337 2.714c26.577 16.641 82.358 49.026 157.367 78.887 66.7 26.486 139.687 38.266 189.174 43.486l7.195 0.757v347.408z m0 0" fill="#bfbfbf" p-id="2607"></path></svg>