<?xml version="1.0" standalone="no"?><!DOCTYPE svg PUBLIC "-//W3C//DTD SVG 1.1//EN" "http://www.w3.org/Graphics/SVG/1.1/DTD/svg11.dtd"><svg t="1577270427206" class="icon" viewBox="0 0 1105 1024" version="1.1" xmlns="http://www.w3.org/2000/svg" p-id="2156" xmlns:xlink="http://www.w3.org/1999/xlink" width="215.8203125" height="200"><defs><style type="text/css"></style></defs><path d="M926.8352 707.8784H857.984c-25.824 0-47.328-21.5232-47.328-47.3472a47.7504 47.7504 0 0 1 47.328-47.3664h68.832c25.8048 0 47.3088-21.504 47.3088-47.3472a47.7504 47.7504 0 0 0-47.3088-47.3472c-25.8048 0-47.328-21.5424-47.328-47.3664a47.7504 47.7504 0 0 1 47.328-47.3472h8.6016c75.2064 4.5696 133.7472 66.9312 133.3632 142.0608-4.3008 81.792-64.512 142.0608-141.9648 142.0608z m-236.6208-94.7136H173.9648c-25.8048 0-47.328 21.5232-47.328 47.3664 0 25.824 21.504 47.3472 47.328 47.3472h516.2496c77.4336 0 141.9648 64.5696 141.9648 142.0608 0 73.1904-55.9104 133.44-133.344 142.0608h-8.6208c-25.8048 0-47.3088-21.5232-47.3088-47.3472a47.7504 47.7504 0 0 1 47.3088-47.3664c25.8048 0 47.328-21.504 47.328-47.3472a47.7504 47.7504 0 0 0-47.328-47.3472H173.9648C96.5312 802.592 32 737.984 32 660.512c0-73.1712 55.9104-133.44 133.3632-142.0416h524.8512c25.8048 0 47.328-21.5424 47.328-47.3664a47.7504 47.7504 0 0 0-47.328-47.3472c-25.8048 0-47.3088-21.5232-47.3088-47.3472a47.7504 47.7504 0 0 1 47.3088-47.3664h8.6208c75.2064 4.5696 133.728 66.9312 133.344 142.08 0 81.7728-64.5312 142.0416-141.9648 142.0416zM303.0272 298.8992a55.9488 55.9488 0 0 1 0-111.9168 55.9488 55.9488 0 0 1 0 111.9168z m111.84 650.0544a55.9488 55.9488 0 1 1 0.0384-111.8976 55.9488 55.9488 0 0 1 0 111.8976h-0.0384z m507.6672-650.0352a56.1024 56.1024 0 0 1-39.5904-16.4352 55.9488 55.9488 0 1 1 39.5904 16.416zM724.6208 143.936a56.1024 56.1024 0 0 1-39.5904-16.4352 55.9488 55.9488 0 1 1 39.6096 16.4352h-0.0192z m-159.168 154.9632a55.9488 55.9488 0 1 1 0.0192-111.8976 55.9488 55.9488 0 0 1 0 111.8976h-0.0192z" fill="#f0a34a" p-id="2157"></path></svg>