<svg t="1598950299727" class="icon" viewBox="0 0 1024 1024" version="1.1" xmlns="http://www.w3.org/2000/svg" p-id="4486" width="48" height="48"><path d="M168.8 920.3c-8.6 9.5-20.3 14.6-32.2 15.2-11.9 0.6-24-3.4-33.6-12.1-9.5-8.7-14.6-20.4-15.2-32.3-0.6-11.9 3.4-24 12.1-33.5L485 475.3c8.6-9.3 20.2-14.4 32-14.9 11.9-0.6 24 3.4 33.5 12.1l0.2 0.2 1.2 1.2 0.2 0.3 1.2 1.2 0.1 0.1 0.3 0.3 0.2 0.2 384.6 381.8c8.7 9.5 12.6 21.6 12.1 33.5-0.6 11.9-5.7 23.6-15.2 32.3-9.5 8.6-21.6 12.6-33.5 12.1-11.9-0.6-23.6-5.7-32.3-15.2L519.2 576 168.8 920.3z" p-id="4487"></path><path d="M168.8 550.9c-8.6 9.5-20.3 14.6-32.2 15.2-11.9 0.6-24-3.4-33.6-12.1-9.5-8.6-14.6-20.3-15.2-32.3-0.6-12.3 3.8-24.4 12.1-33.5L485 105.8c8.6-9.3 20.2-14.4 32-14.9 11.9-0.6 24 3.4 33.5 12.1l0.2 0.2 1.2 1.2 0.2 0.2 1.2 1.2 0.1 0.1 0.3 0.3 0.2 0.2 384.6 381.8c8.7 9.5 12.6 21.6 12.1 33.5-0.6 11.9-5.7 23.6-15.2 32.3-9.5 8.7-21.6 12.6-33.5 12.1-11.9-0.6-23.6-5.7-32.3-15.2L519.2 206.6 168.8 550.9z" p-id="4488"></path></svg>