<?xml version="1.0" standalone="no"?><!DOCTYPE svg PUBLIC "-//W3C//DTD SVG 1.1//EN" "http://www.w3.org/Graphics/SVG/1.1/DTD/svg11.dtd"><svg t="1601202978500" class="icon" viewBox="0 0 1024 1024" version="1.1" xmlns="http://www.w3.org/2000/svg" p-id="1692" width="64" height="64"><path d="M880.786286 211.382857h104.813714c21.065143 0 38.107429-15.652571 38.107429-34.816 0-19.236571-17.042286-34.816-38.107429-34.816h-104.813714V37.814857c0-20.918857-15.725714-37.814857-35.108572-37.814857-19.309714 0-34.962286 16.896-34.962285 37.814857v103.936H705.828571c-21.065143 0-38.180571 15.579429-38.180571 34.816 0 19.163429 17.115429 34.742857 38.180571 34.742857h104.813715v104.009143c0 20.845714 15.652571 37.814857 35.035428 37.814857 19.309714 0 35.035429-16.969143 35.035429-37.814857V211.309714zM630.784 538.331429a34.816 34.816 0 0 0 34.962286-34.596572 34.816 34.816 0 0 0-34.962286-34.669714h-106.057143v-1.462857l129.536-133.997715a34.377143 34.377143 0 0 0-0.877714-49.005714 34.962286 34.962286 0 0 0-49.225143 1.243429l-111.030857 115.565714L375.588571 285.257143a35.108571 35.108571 0 0 0-49.444571 0 34.377143 34.377143 0 0 0-0.585143 49.005714l129.243429 128.365714v6.436572H351.232a34.816 34.816 0 0 0-34.962286 34.669714c0 19.090286 15.652571 34.596571 34.962286 34.596572h103.570286v69.266285H351.232a34.816 34.816 0 0 0-34.962286 34.669715c0 19.090286 15.652571 34.596571 34.962286 34.596571h103.570286v102.985143c0 19.163429 15.652571 34.596571 34.962285 34.596571a34.816 34.816 0 0 0 34.962286-34.596571V676.864h106.057143a34.742857 34.742857 0 0 0 34.962286-34.596571 34.742857 34.742857 0 0 0-34.962286-34.669715h-106.057143V538.331429h106.057143z m347.794286-25.161143v24.137143h-69.266286v1.024c0 229.156571-188.196571 415.597714-419.474286 415.597714C258.706286 953.929143 70.217143 767.268571 70.217143 538.331429c0-229.156571 188.196571-415.597714 419.547428-415.597715H490.057143V53.613714C220.16 53.321143 0.292571 270.774857 0.292571 538.258286c0 267.556571 219.428571 484.937143 489.472 484.937143 269.897143 0 489.472-217.526857 489.472-484.864 0-8.411429-0.219429-16.822857-0.658285-25.161143zM502.125714 122.733714h-11.995428V53.540571h11.995428c19.309714 0 34.962286 15.433143 34.962286 34.596572a34.742857 34.742857 0 0 1-34.962286 34.596571z m441.782857 379.392a34.450286 34.450286 0 0 0-34.596571 34.377143v0.731429h69.266286v-0.731429c0-19.017143-15.506286-34.377143-34.669715-34.377143z" p-id="1693" fill="#ffffff"></path></svg>