<?xml version="1.0" standalone="no"?><!DOCTYPE svg PUBLIC "-//W3C//DTD SVG 1.1//EN" "http://www.w3.org/Graphics/SVG/1.1/DTD/svg11.dtd"><svg t="1577270453641" class="icon" viewBox="0 0 1024 1024" version="1.1" xmlns="http://www.w3.org/2000/svg" p-id="2408" xmlns:xlink="http://www.w3.org/1999/xlink" width="200" height="200"><defs><style type="text/css"></style></defs><path d="M570.20871147 853.33333333l5.5296 14.17671147c18.2044448 48.28728853 24.71253333 82.19306667 19.4787552 101.71733333-8.6016 32.08533333-40.1635552 51.51857813-70.51946667 43.39484374-30.35591147-8.12373333-47.96871147-40.7324448-39.36711147-72.81777707 5.7116448-21.39022187 34.0195552-50.22151147 84.87822294-86.47111147zM318.57777813 705.42222187c11.37777813 0 20.73031147 8.89742187 21.57226667 20.6392896l0.0455104 1.20604373-0.0227552 42.5984 31.67573333-30.60622187a22.45973333 22.45973333 0 0 1 29.9008-1.09226666l1.2060448 1.09226666c8.4195552 8.12373333 8.87466667 21.2764448 0.8647104 30.26488854l-0.8647104 0.88746666-30.12835626 29.12711147h37.91075626c11.37777813 0 20.73031147 8.92017813 21.57226667 20.6620448l0.0455104 1.18328853a21.84533333 21.84533333 0 0 1-20.43448853 21.79982187l-39.1395552 0.02275627 30.17386666 29.17262186c8.4195552 8.12373333 8.87466667 21.2764448 0.8647104 30.26488854l-0.8647104 0.88746666a22.5507552 22.5507552 0 0 1-30.21937813 0.7964448L340.1955552 872.90311147l0.02275627 42.6439104a21.84533333 21.84533333 0 0 1-20.4344896 21.79982293l-1.18328854 0.0227552a21.79982187 21.79982187 0 0 1-21.57226666-20.63928853l-0.04551147-43.84995627-31.65297707 30.6744896a22.5507552 22.5507552 0 0 1-30.21937813 0.79644373l-0.91022187-0.79644373a21.6860448 21.6860448 0 0 1-0.84195626-30.2876448l0.86471146-0.86471147 30.1283552-29.17262186H226.41777813a21.79982187 21.79982187 0 0 1-21.57226666-20.63928854l-0.04551147-1.1832896a21.84533333 21.84533333 0 0 1 20.43448853-21.79982186l1.1832896-0.0227552 37.888-0.02275627-30.1056-29.1271104c-7.28177813-7.05422187-8.71537813-17.97688853-3.0264896-27.48871147l2.16177814-2.79893333 0.86471146-0.86471147a22.5507552 22.5507552 0 0 1 30.21937707-0.8192l32.5404448 31.44817814V727.2675552c0-9.87591147 6.5308448-18.47751147 16.9756448-21.2992l3.45884373-0.50062187 1.1832896-0.04551146zM739.5555552 716.8c22.41422187 55.8876448 30.72 94.50382187 25.00835627 115.9168-8.6016 32.08533333-40.1635552 51.49582187-70.51946667 43.37208853-30.35591147-8.12373333-47.96871147-40.7324448-39.36711147-72.81777706 5.7116448-21.39022187 34.0195552-50.22151147 84.87822187-86.47111147zM512 34.13333333c126.7939552 0 236.1571552 80.14506667 277.84533333 194.01386667C879.68426667 258.59413333 944.3555552 343.60888853 944.3555552 443.73333333c0 122.51591147-96.96142187 222.89066667-220.75164373 227.44177814L716.8 671.28888853H284.4444448a204.8 204.8 0 0 1-204.8-204.8c0-88.54186667 56.2972448-164.29511147 136.48782187-192.80782186l5.77991146-1.95697814 1.4563552-6.84942186C253.01902187 132.80142187 370.98382187 34.13333333 512 34.13333333z m0 91.02222187a204.8 204.8 0 0 0-203.5484448 227.55555627H284.4444448l-4.93795627 0.11377706A113.77777813 113.77777813 0 0 0 284.4444448 580.26666667h432.3555552l5.12-0.09102187A136.53333333 136.53333333 0 0 0 716.8 307.2l-1.2515552 0.0227552A204.8227552 204.8227552 0 0 0 512 125.1555552z" fill="#77c9f6" p-id="2409"></path></svg>