<?xml version="1.0" standalone="no"?><!DOCTYPE svg PUBLIC "-//W3C//DTD SVG 1.1//EN" "http://www.w3.org/Graphics/SVG/1.1/DTD/svg11.dtd"><svg t="1577270464914" class="icon" viewBox="0 0 1024 1024" version="1.1" xmlns="http://www.w3.org/2000/svg" p-id="2660" xmlns:xlink="http://www.w3.org/1999/xlink" width="200" height="200"><defs><style type="text/css"></style></defs><path d="M727.39005049 424.01519404l191.44342266 50.37984756c2.51899278 0.89964052 5.9376252 0.89964052 8.45661708 0.89964053 15.29388281 0 28.9684125-9.17632969 33.10675753-24.11035577 5.03798467-17.45301885-5.9376252-35.80567734-23.75049991-40.84366289l-126.489404-32.9268287 78.80847627-44.62215118c16.19352247-9.17632969 22.13114766-30.04798096 12.77489004-45.88164755-9.35625761-15.83366661-30.58776474-21.59136387-46.78128721-12.41503419l-78.44862041 44.26229532 33.28668545-122.71091572c5.03798467-17.45301885-5.9376252-35.80567734-23.7504999-40.8436629s-36.52538994 5.75769727-41.74330254 23.39064405L692.48401279 366.07836904l-155.09796065 87.62494922V297.70571797l140.52379044-136.74530214c13.67453057-13.31467383 13.67453057-34.1863251 0-47.50099981a34.54618183 34.54618183 0 0 0-48.58056738 0l-91.94322305 89.96401494V95.28668545C537.38605215 76.93402607 522.09216934 62 503.37965498 62s-34.00639717 14.93402607-34.00639805 33.28668545v108.13674551l-91.94322216-90.50379874a34.54618183 34.54618183 0 0 0-48.58056826 0c-13.67453057 13.31467383-13.67453057 34.1863251 0 47.50099981l140.52379042 137.46501387v155.99760117l-138.00479765-77.90883662-51.81927276-188.20471816a34.42023193 34.42023193 0 0 0-41.74330254-23.39064404c-17.81287471 5.03798467-28.9684125 23.39064404-23.7504999 40.84366288l33.46661338 123.25069952-95.5417834-53.9784088c-16.19352247-9.17632969-37.42502959-3.41863242-46.78128721 12.41503419-9.35625761 15.83366661-3.41863242 36.70531787 12.77489005 45.88164755l95.36185547 53.79847998-125.94962023 32.74690166c-17.81287471 5.03798467-28.9684125 23.39064404-23.7504999 40.8436629 4.31827295 14.93402607 17.81287471 25.00999628 33.10675753 25.00999541 2.51899278 0 5.9376252 0 9.35625761-1.61935225l190.00399835-50.19991963 138.54458232 78.44862042-138.90443907 78.4486204-190.00399833-50.19991962c-17.81287471-5.03798467-36.52538994 5.75769727-41.74330255 23.39064316-5.03798467 17.45301885 5.9376252 35.80567734 23.7504999 40.84366289l125.40983643 32.56697285-95.54178339 53.97840879c-16.19352247 9.17632969-22.13114766 30.04798096-12.77489005 45.88164755 6.83726484 10.79568193 17.81287471 16.73330625 29.86805303 16.73330625 5.9376252 0 11.87524951-1.61935224 17.09316212-4.13834414l96.62135185-54.51819258-33.64654131 123.79048331c-5.03798467 17.45301885 5.9376252 35.80567734 23.7504999 40.84366289 2.51899278 0.89964052 5.9376252 0.89964052 8.45661709 0.89963964 14.39424229 0 28.06877286-10.07596934 32.38704492-24.11035576l51.81927276-188.02479023 138.00479766-77.90883574v174.35025967l-140.52379044 137.46501387c-13.67453057 13.31467383-13.67453057 34.1863251 0 47.5009998 6.83726484 6.65733691 15.29388281 10.07596934 23.75049991 10.07596934 8.45661709 0 17.81287471-3.41863242 24.65013955-10.07596934l91.94322304-89.96401495v89.06437442c0 18.35265938 15.29388281 33.28668545 34.00639718 33.28668545s34.00639717-14.93402607 34.00639804-33.28668545V839.28908427l92.84286269 90.14394288c13.67453057 13.31467383 34.90603769 13.31467383 48.58056739 0 13.67453057-13.31467383 13.67453057-34.1863251 0-47.50099981l-141.24350215-138.18472646v-173.63054795l154.19832012 87.08516631 51.81927275 188.02479024c4.31827295 14.93402607 17.81287471 25.00999628 33.10675752 25.00999541 3.41863242 0 5.9376252-0.89964052 7.7369045-1.61935226 17.81287471-5.03798467 28.9684125-23.39064404 23.7504999-40.843662l-33.64654131-123.79048418 80.42782939 45.5217917c5.03798467 2.51899278 10.97560987 4.13834502 17.09316211 4.13834414 11.87524951 0 23.03078731-5.75769727 29.86805303-16.73330625 9.35625761-15.83366661 3.41863242-36.70531787-12.77489004-45.88164756l-79.34826094-44.8020791 125.40983643-32.56697285c17.81287471-5.03798467 28.9684125-23.39064404 23.7504999-40.84366289a34.42023193 34.42023193 0 0 0-41.74330255-23.39064405l-190.00399833 50.19992051L571.93223398 511.82007208l155.45781651-87.80487804z" fill="#77c9f6" p-id="2661"></path></svg>