<?xml version="1.0" standalone="no"?><!DOCTYPE svg PUBLIC "-//W3C//DTD SVG 1.1//EN" "http://www.w3.org/Graphics/SVG/1.1/DTD/svg11.dtd"><svg t="1592195012538" class="icon" viewBox="0 0 1024 1024" version="1.1" xmlns="http://www.w3.org/2000/svg" p-id="836" xmlns:xlink="http://www.w3.org/1999/xlink" width="200" height="200"><defs><style type="text/css"></style></defs><path d="M506.919515 584.820287c-7.902977 0-15.805954-3.38699-21.450937-9.031974-10.16097-11.289967-9.031974-29.353914 2.257993-39.514884 37.256891-33.869901 58.707828-81.287762 58.707828-130.963616 0-95.964719-79.029768-174.994487-174.994487-174.994488s-174.994487 79.029768-174.994488 174.994488c0 49.675854 21.450937 98.222712 58.707828 130.963616 11.289967 10.16097 12.418964 28.224917 2.257994 39.514884-10.16097 11.289967-28.224917 12.418964-39.514884 2.257994-49.675854-44.030871-77.900772-107.254686-77.900772-172.736494 0-127.576626 103.867696-231.444322 231.444322-231.444322s231.444322 103.867696 231.444322 231.444322c0 66.610805-28.224917 128.705623-77.900772 172.736494-5.644983 4.515987-12.418964 6.77398-18.063947 6.77398z" fill="#cdcdcd" p-id="837"></path><path d="M618.690187 931.422271H125.318633c-14.676957 0-25.966924-10.16097-28.224917-24.837927-1.128997-6.77398-21.450937-172.736494 71.126791-310.47409 15.805954-22.579934 32.740904-42.901874 50.804851-59.836825 11.289967-10.16097 29.353914-10.16097 39.514885 1.128997 10.16097 11.289967 10.16097 29.353914-1.128997 39.514884-14.676957 14.676957-29.353914 31.611907-42.901874 50.804851-60.965821 90.319735-65.481808 198.703418-63.223815 247.250276h441.437707c1.128997-47.417861-2.257993-156.93054-63.223815-247.250276-12.418964-19.192944-27.095921-36.127894-42.901875-50.804851-11.289967-10.16097-11.289967-28.224917-1.128996-39.514884s28.224917-11.289967 39.514884-1.128997c18.063947 16.93495 34.998897 37.256891 50.804851 59.836825 92.577729 136.6086 71.126792 303.70011 71.126792 310.47409-2.257993 13.54796-13.54796 24.837927-28.224918 24.837927z" fill="#cdcdcd" p-id="838"></path><path d="M786.910695 504.661521c-7.902977 0-15.805954-3.38699-21.450938-9.031973-10.16097-11.289967-9.031974-29.353914 2.257994-39.514884 37.256891-33.869901 58.707828-81.287762 58.707828-130.963617 0-95.964719-79.029768-174.994487-174.994487-174.994487-37.256891 0-73.384785 11.289967-103.867696 33.869901-12.418964 9.031974-30.482911 6.77398-39.514884-5.644984-9.031974-12.418964-6.77398-30.482911 5.644983-39.514884 39.514884-29.353914 86.932745-45.159868 137.737597-45.159868 127.576626 0 231.444322 103.867696 231.444321 231.444322 0 66.610805-28.224917 128.705623-77.900771 172.736494-4.515987 4.515987-11.289967 6.77398-18.063947 6.77398z" fill="#cdcdcd" p-id="839"></path><path d="M898.681367 851.263506H711.267916c-15.805954 0-28.224917-12.418964-28.224917-28.224917s12.418964-28.224917 28.224917-28.224918h161.446527c1.128997-47.417861-2.257993-156.93054-63.223815-247.250275-12.418964-19.192944-27.095921-36.127894-42.901874-50.804851-11.289967-10.16097-11.289967-28.224917-1.128997-39.514885s28.224917-11.289967 39.514885-1.128996c18.063947 16.93495 34.998897 37.256891 50.804851 59.836824 92.577729 136.6086 71.126792 303.70011 71.126791 310.474091-1.128997 14.676957-13.54796 24.837927-28.224917 24.837927z" fill="#cdcdcd" p-id="840"></path></svg>