<?xml version="1.0" standalone="no"?><!DOCTYPE svg PUBLIC "-//W3C//DTD SVG 1.1//EN" "http://www.w3.org/Graphics/SVG/1.1/DTD/svg11.dtd"><svg t="1591068032879" class="icon" viewBox="0 0 1024 1024" version="1.1" xmlns="http://www.w3.org/2000/svg" p-id="2630" xmlns:xlink="http://www.w3.org/1999/xlink" width="48" height="48"><defs><style type="text/css"></style></defs><path d="M974 194.1c-4.3-47.4-29.4-90.3-68.8-117.5-63.3-43.8-151.2-33.5-209 24.4L203.9 593.3c-35.5 35.6-51.9 84.8-44.8 135 3.6 25.4-3 48.6-18.1 63.7l-72.8 72.8c-24.9 24.9-24.9 65.5 0 90.5C80.6 967.8 97 974 113.4 974s32.8-6.2 45.3-18.7l72.8-72.8c15.1-15.1 38.2-21.7 63.7-18.1 50.3 7.1 99.5-9.3 135-44.8l158.4-158.4 135.7-135.7L928 321.7c33.5-33.5 50.3-80 46-127.6z m-91.3 82.4l-45.3 45.3-67.9-67.9c-12.5-12.5-32.8-12.5-45.2 0-12.5 12.5-12.5 32.7 0 45.2l67.9 67.9-22.6 22.6-19.9-19.9c-12.5-12.5-32.8-12.5-45.2 0-12.5 12.5-12.5 32.8 0 45.2l19.9 19.9-22.6 22.6-19.9-19.9c-12.5-12.5-32.8-12.5-45.2 0s-12.5 32.8 0 45.2l19.9 19.9-22.6 22.6-67.9-67.9c-12.5-12.5-32.8-12.5-45.2 0-12.5 12.5-12.5 32.8 0 45.2l67.9 67.9-22.6 22.6-20.2-19.6c-12.5-12.5-32.8-12.5-45.2 0-12.5 12.5-12.5 32.8 0 45.2l19.9 19.9-22.7 22.7-19.9-19.9c-12.5-12.5-32.8-12.5-45.2 0-12.5 12.5-12.5 32.8 0 45.2l19.9 19.9-67.9 67.9c-21.2 21.2-50.8 31-80.9 26.7-45.3-6.5-87.8 6.6-117.2 35.6 29-29.4 42-72.1 35.6-117.2-4.2-30.2 5.5-59.6 26.7-80.9l492.3-492.3c21.2-21.2 49.4-32.3 76.5-32.3 18.2 0 35.9 5 50.8 15.3 24.1 16.7 38.8 41.8 41.5 70.6 2.7 28.7-7.4 56.6-27.5 76.7z" p-id="2631" fill="#cdcdcd"></path></svg>