<?xml version="1.0" standalone="no"?><!DOCTYPE svg PUBLIC "-//W3C//DTD SVG 1.1//EN" "http://www.w3.org/Graphics/SVG/1.1/DTD/svg11.dtd"><svg t="1601202356875" class="icon" viewBox="0 0 1024 1024" version="1.1" xmlns="http://www.w3.org/2000/svg" p-id="1622" width="64" height="64"><path d="M832 129.6H216c-56 0-102.4 46.4-102.4 102.4v436.8c0 56 46.4 102.4 102.4 102.4H832c56 0 102.4-46.4 102.4-102.4V232c0-56-46.4-102.4-102.4-102.4z m38.4 539.2c0 20.8-17.6 38.4-38.4 38.4h-102.4V441.6c0-17.6-14.4-32-32-32s-32 14.4-32 32v265.6h-115.2V321.6c0-17.6-14.4-32-32-32s-32 14.4-32 32v385.6h-115.2V508.8c0-17.6-14.4-32-32-32s-32 14.4-32 32v200h-92.8c-20.8 0-38.4-17.6-38.4-38.4V232c0-20.8 17.6-38.4 38.4-38.4H832c20.8 0 38.4 17.6 38.4 38.4v436.8zM713.6 854.4H334.4c-17.6 0-32 14.4-32 32s14.4 32 32 32h379.2c17.6 0 32-14.4 32-32s-14.4-32-32-32z" p-id="1623" fill="#ffffff"></path></svg>